<?xml version="1.0" encoding="UTF-8"?><svg id="_レイヤー_1" xmlns="http://www.w3.org/2000/svg" xmlns:xlink="http://www.w3.org/1999/xlink" viewBox="0 0 40 28"><defs><style>.cls-1{fill:none;}.cls-2{clip-path:url(#clippath);}.cls-3{fill:#fff;}</style><clipPath id="clippath"><rect class="cls-1" width="40" height="28"/></clipPath></defs><g class="cls-2"><g><path class="cls-3" d="M38.32,27.21H1.68c-.73,0-1.32-.59-1.32-1.32V2.11C.36,1.38,.95,.79,1.68,.79H38.32c.73,0,1.32,.59,1.32,1.32V25.89c0,.73-.59,1.32-1.32,1.32ZM1.68,1.5c-.34,0-.61,.27-.61,.61V25.89c0,.34,.27,.61,.61,.61H38.32c.34,0,.61-.27,.61-.61V2.11c0-.34-.27-.61-.61-.61H1.68Z"/><path class="cls-3" d="M20.01,16.78c-.8,0-1.59-.26-2.2-.77L.93,1.73l.46-.54L18.27,15.48c.94,.79,2.53,.8,3.47,0L38.64,1.24l.46,.54-16.9,14.24c-.6,.51-1.4,.76-2.19,.76Z"/><rect class="cls-3" x="30.3" y="10.97" width=".71" height="17.01" transform="translate(-4.09 30.06) rotate(-49.38)"/><rect class="cls-3" x=".67" y="19.17" width="17.12" height=".71" transform="translate(-10.44 10.61) rotate(-40.31)"/></g></g></svg>